<svg width="68" height="84" viewBox="0 0 68 84" fill="none" xmlns="http://www.w3.org/2000/svg">
<path d="M62.272 25.8699C62.0008 22.6519 61.9626 17.1092 63.8559 15.2481C63.8897 15.214 63.9149 15.1647 63.9446 15.1224C65.4925 14.3408 66.5637 13.2439 65.7228 11.7678L42.8889 0.90625L5.91562 9.02149C5.91562 9.02149 1.68171 9.97685 2.05993 20.3614C2.26526 26.0133 3.38812 28.7891 4.3701 30.1552L1.33611 31.5986C0.494007 33.0746 1.56504 34.1719 3.11316 34.9522C3.14258 34.9958 3.16739 35.0448 3.20181 35.0789C5.09393 36.9416 5.05751 42.4836 4.78535 45.7023C-2.01208 48.7494 0.427968 49.7424 0.427968 49.7424L1.91905 50.312C0.87023 51.8082 -0.171386 54.6456 0.0237292 60.0268C0.402153 70.4094 3.87981 71.1259 3.87981 71.1259L28.0749 83.5413L64.5946 69.5766C64.5946 69.5766 67.0354 68.5821 60.2362 65.5346C59.9628 62.321 59.9248 56.7797 61.8213 54.9122C61.8561 54.879 61.8815 54.8288 61.9098 54.7871C63.4579 54.0055 64.5281 52.9095 63.687 51.4335L62.0997 50.6769C63.1583 49.6691 64.7484 47.0352 64.9976 40.1934C65.1695 35.4874 64.3918 32.7312 63.4917 31.1086L66.6292 29.91C66.6294 29.9119 69.0702 28.9174 62.272 25.8699ZM31.7255 25.7369L37.8667 23.7444L58.6206 17.0113L61.7126 16.0073C60.7247 18.862 60.7661 22.7688 60.9296 25.2798C60.9654 25.8478 61.0066 26.3666 61.0466 26.7608L57.6623 28.0893L31.4673 38.3769L31.7255 25.7369ZM5.34528 35.8412L8.43691 36.8452L28.3681 43.3135L30.1093 43.8765L35.331 45.5709L35.5886 58.2111L8.66584 47.6367L6.01167 46.5954C6.0507 46.2005 6.09192 45.6824 6.12934 45.1128C6.29184 42.6037 6.33406 38.6959 5.34528 35.8412ZM4.14417 19.8616C4.10675 17.0994 4.41853 15.1018 5.0487 14.0864C5.44974 13.4382 5.92302 13.3033 6.24761 13.3033C6.41911 13.3033 6.54259 13.3408 6.55099 13.3408L22.4818 21.5401L30.4299 25.6311L30.1692 38.3595L7.87157 28.4905L6.69488 27.9702C6.65165 27.9509 6.59302 27.9377 6.54779 27.9345C6.45594 27.9241 4.25143 27.6037 4.14417 19.8616ZM28.1326 78.0267L4.65887 67.6371C4.61545 67.6172 4.55741 67.604 4.51219 67.6005C4.41873 67.5907 2.21323 67.2707 2.10656 59.5304C2.06854 56.7648 2.38193 54.7691 3.0109 53.7527C3.41294 53.1045 3.88642 52.9696 4.21041 52.9696C4.38231 52.9696 4.50538 53.0059 4.51439 53.0059C4.51439 53.0059 4.51539 53.0059 4.51439 53.0059L28.3917 65.298L28.1326 78.0267ZM58.8918 64.9451C58.9288 65.5151 58.97 66.0329 59.01 66.4278L29.4301 78.0448L29.6887 65.4045L36.0126 63.3519L36.9466 63.7086L40.4471 61.9125L56.5828 56.6779L59.676 55.6733C58.6871 58.5277 58.7281 62.436 58.8918 64.9451ZM60.5211 47.7665C60.4673 47.7684 60.4135 47.7798 60.3628 47.8051L58.1319 48.7911L36.8898 58.1944L36.63 45.466L43.5993 41.8773L60.4747 33.189C60.4769 33.1874 61.3624 32.8769 62.0124 33.9204C62.6416 34.9358 62.9538 36.9334 62.917 39.6955C62.8069 47.4351 60.6014 47.7568 60.5211 47.7665Z" fill="white"/>
</svg>
