<svg width="68" height="68" viewBox="0 0 68 68" fill="none" xmlns="http://www.w3.org/2000/svg">
<g id="books-stack-of-three 2" clip-path="url(#clip0_6_286)">
<g id="Group">
<g id="Group_2">
<path id="Vector" d="M63.1489 24.1307C62.8739 22.0636 62.8352 18.5033 64.7552 17.3078C64.7895 17.2859 64.815 17.2542 64.8451 17.227C66.4148 16.7249 67.5011 16.0203 66.6484 15.0722L43.4929 8.09525L5.99892 13.3081C5.99892 13.3081 1.70539 13.9218 2.08894 20.5923C2.29716 24.2229 3.43583 26.0059 4.43164 26.8834L1.35492 27.8106C0.500964 28.7587 1.58708 29.4635 3.157 29.9648C3.18683 29.9928 3.21199 30.0242 3.2469 30.0461C5.16567 31.2427 5.12873 34.8026 4.85274 36.8701C-2.04041 38.8274 0.433995 39.4653 0.433995 39.4653L1.94608 39.8312C0.882485 40.7923 -0.1738 42.6149 0.0240634 46.0715C0.407817 52.7408 3.93445 53.2011 3.93445 53.2011L28.4703 61.1761L65.5042 52.2059C65.5042 52.2059 67.9794 51.567 61.0845 49.6095C60.8072 47.5452 60.7687 43.9857 62.6919 42.7861C62.7272 42.7648 62.753 42.7326 62.7816 42.7058C64.3515 42.2037 65.4368 41.4997 64.5839 40.5516L62.9742 40.0656C64.0477 39.4182 65.6603 37.7263 65.9129 33.3315C66.0872 30.3085 65.2986 28.5381 64.3858 27.4958L67.5675 26.7259C67.5677 26.7271 70.0429 26.0883 63.1489 24.1307ZM32.1723 24.0453L38.4 22.7654L59.4461 18.4404L62.5817 17.7954C61.5798 19.6292 61.6218 22.1387 61.7876 23.7516C61.824 24.1165 61.8658 24.4498 61.9063 24.703L58.4743 25.5564L31.9105 32.1646L32.1723 24.0453ZM5.42055 30.5358L8.55572 31.1808L28.7676 35.3357L30.5334 35.6973L35.8286 36.7857L36.0898 44.9052L8.78788 38.1127L6.09633 37.4438C6.13591 37.1901 6.17771 36.8573 6.21566 36.4914C6.38044 34.8797 6.42326 32.3696 5.42055 30.5358ZM4.20253 20.2713C4.16458 18.497 4.48075 17.2138 5.1198 16.5616C5.52649 16.1452 6.00643 16.0585 6.3356 16.0585C6.50951 16.0585 6.63472 16.0826 6.64325 16.0826L22.7984 21.3495L30.8585 23.9773L30.594 32.1535L7.98243 25.8141L6.78916 25.4799C6.74532 25.4675 6.68586 25.459 6.64 25.4569C6.54685 25.4502 4.3113 25.2445 4.20253 20.2713ZM28.5287 57.6338L4.72448 50.96C4.68044 50.9473 4.62159 50.9387 4.57573 50.9365C4.48096 50.9302 2.24439 50.7246 2.13623 45.7527C2.09767 43.9762 2.41547 42.6942 3.0533 42.0414C3.461 41.6249 3.94115 41.5383 4.2697 41.5383C4.44402 41.5383 4.56883 41.5616 4.57796 41.5616C4.57796 41.5616 4.57898 41.5616 4.57796 41.5616L28.7915 49.4575L28.5287 57.6338ZM59.7211 49.2308C59.7587 49.5969 59.8005 49.9295 59.8411 50.1832L29.8446 57.6454L30.1068 49.5259L36.5198 48.2074L37.4669 48.4365L41.0167 47.2828L57.3796 43.9204L60.5164 43.275C59.5135 45.1086 59.5551 47.6191 59.7211 49.2308ZM61.3734 38.1961C61.3188 38.1973 61.2643 38.2046 61.2129 38.2209L58.9506 38.8542L37.4093 44.8945L37.1458 36.7183L44.2133 34.4132L61.3264 28.8322C61.3286 28.8312 62.2266 28.6317 62.8857 29.302C63.5237 29.9542 63.8403 31.2374 63.803 33.0117C63.6914 37.9832 61.4548 38.1898 61.3734 38.1961Z" fill="white"/>
</g>
</g>
</g>
<defs>
<clipPath id="clip0_6_286">
<rect width="68" height="68" fill="white"/>
</clipPath>
</defs>
</svg>
