<svg width="177" height="42" viewBox="0 0 177 42" fill="none" xmlns="http://www.w3.org/2000/svg">
<path d="M47.798 8.5927H51.102V15.8307H55.526V18.3927H47.798V8.5927ZM56.4386 8.5927H59.7426V18.3927H56.4386V8.5927ZM69.1732 13.2687C69.7518 13.4834 70.1998 13.796 70.5172 14.2067C70.8345 14.6174 70.9932 15.112 70.9932 15.6907C70.9932 16.5494 70.6385 17.2167 69.9292 17.6927C69.2198 18.1594 68.1932 18.3927 66.8492 18.3927H61.3332V8.5927H66.5692C67.8758 8.5927 68.8605 8.82603 69.5232 9.2927C70.1952 9.75937 70.5312 10.38 70.5312 11.1547C70.5312 11.612 70.4145 12.0227 70.1812 12.3867C69.9572 12.7507 69.6212 13.0447 69.1732 13.2687ZM64.5812 10.9027V12.3587H66.1212C66.8398 12.3587 67.1992 12.116 67.1992 11.6307C67.1992 11.1454 66.8398 10.9027 66.1212 10.9027H64.5812ZM66.5692 16.0827C67.2972 16.0827 67.6612 15.826 67.6612 15.3127C67.6612 14.7994 67.2972 14.5427 66.5692 14.5427H64.5812V16.0827H66.5692ZM76.3613 15.9287H75.4653V18.3927H72.1613V8.5927H76.8793C77.7846 8.5927 78.5733 8.74203 79.2453 9.0407C79.9173 9.33937 80.4353 9.7687 80.7993 10.3287C81.1633 10.8887 81.3453 11.542 81.3453 12.2887C81.3453 12.9887 81.1866 13.6 80.8693 14.1227C80.5519 14.6454 80.0946 15.0607 79.4973 15.3687L81.5553 18.3927H78.0273L76.3613 15.9287ZM78.0133 12.2887C78.0133 11.9247 77.9013 11.6447 77.6773 11.4487C77.4533 11.2434 77.1173 11.1407 76.6693 11.1407H75.4653V13.4367H76.6693C77.1173 13.4367 77.4533 13.3387 77.6773 13.1427C77.9013 12.9374 78.0133 12.6527 78.0133 12.2887ZM89.2709 16.6847H85.5469L84.8889 18.3927H81.5289L85.8129 8.5927H89.0609L93.3449 18.3927H89.9289L89.2709 16.6847ZM88.3609 14.3047L87.4089 11.8407L86.4569 14.3047H88.3609ZM98.0722 15.9287H97.1762V18.3927H93.8722V8.5927H98.5902C99.4956 8.5927 100.284 8.74203 100.956 9.0407C101.628 9.33937 102.146 9.7687 102.51 10.3287C102.874 10.8887 103.056 11.542 103.056 12.2887C103.056 12.9887 102.898 13.6 102.58 14.1227C102.263 14.6454 101.806 15.0607 101.208 15.3687L103.266 18.3927H99.7382L98.0722 15.9287ZM99.7242 12.2887C99.7242 11.9247 99.6122 11.6447 99.3882 11.4487C99.1642 11.2434 98.8282 11.1407 98.3802 11.1407H97.1762V13.4367H98.3802C98.8282 13.4367 99.1642 13.3387 99.3882 13.1427C99.6122 12.9374 99.7242 12.6527 99.7242 12.2887ZM109.991 14.8367V18.3927H106.687V14.7947L102.991 8.5927H106.477L108.479 11.9807L110.495 8.5927H113.687L109.991 14.8367Z" fill="white"/>
<path d="M57.215 27.6997C57.813 27.8297 58.2723 28.0897 58.593 28.4797C58.9223 28.861 59.087 29.355 59.087 29.9617C59.087 30.7417 58.7967 31.344 58.216 31.7687C57.644 32.1847 56.7947 32.3927 55.668 32.3927H51.482V23.2927H55.408C56.422 23.2927 57.2063 23.4964 57.761 23.9037C58.3243 24.311 58.606 24.8874 58.606 25.6327C58.606 26.1354 58.4803 26.5644 58.229 26.9197C57.9863 27.2664 57.6483 27.5264 57.215 27.6997ZM52.444 24.0857V27.3877H55.343C56.0797 27.3877 56.6473 27.249 57.046 26.9717C57.4447 26.6857 57.644 26.274 57.644 25.7367C57.644 25.1994 57.4447 24.792 57.046 24.5147C56.6473 24.2287 56.0797 24.0857 55.343 24.0857H52.444ZM55.655 31.5997C56.4697 31.5997 57.085 31.461 57.501 31.1837C57.917 30.9064 58.125 30.473 58.125 29.8837C58.125 28.7484 57.3017 28.1807 55.655 28.1807H52.444V31.5997H55.655ZM65.2608 32.4707C64.3594 32.4707 63.5404 32.2714 62.8038 31.8727C62.0758 31.4654 61.5038 30.9107 61.0878 30.2087C60.6804 29.5067 60.4768 28.718 60.4768 27.8427C60.4768 26.9674 60.6804 26.1787 61.0878 25.4767C61.5038 24.7747 62.0758 24.2244 62.8038 23.8257C63.5404 23.4184 64.3594 23.2147 65.2608 23.2147C66.1621 23.2147 66.9724 23.414 67.6918 23.8127C68.4198 24.2114 68.9918 24.766 69.4078 25.4767C69.8238 26.1787 70.0318 26.9674 70.0318 27.8427C70.0318 28.718 69.8238 29.511 69.4078 30.2217C68.9918 30.9237 68.4198 31.474 67.6918 31.8727C66.9724 32.2714 66.1621 32.4707 65.2608 32.4707ZM65.2608 31.6127C65.9801 31.6127 66.6301 31.4524 67.2108 31.1317C67.7914 30.8024 68.2464 30.3517 68.5758 29.7797C68.9051 29.199 69.0698 28.5534 69.0698 27.8427C69.0698 27.132 68.9051 26.4907 68.5758 25.9187C68.2464 25.338 67.7914 24.8874 67.2108 24.5667C66.6301 24.2374 65.9801 24.0727 65.2608 24.0727C64.5414 24.0727 63.8871 24.2374 63.2978 24.5667C62.7171 24.8874 62.2578 25.338 61.9198 25.9187C61.5904 26.4907 61.4258 27.132 61.4258 27.8427C61.4258 28.5534 61.5904 29.199 61.9198 29.7797C62.2578 30.3517 62.7171 30.8024 63.2978 31.1317C63.8871 31.4524 64.5414 31.6127 65.2608 31.6127ZM76.1661 32.4707C75.2647 32.4707 74.4457 32.2714 73.7091 31.8727C72.9811 31.4654 72.4091 30.9107 71.9931 30.2087C71.5857 29.5067 71.3821 28.718 71.3821 27.8427C71.3821 26.9674 71.5857 26.1787 71.9931 25.4767C72.4091 24.7747 72.9811 24.2244 73.7091 23.8257C74.4457 23.4184 75.2647 23.2147 76.1661 23.2147C77.0674 23.2147 77.8777 23.414 78.5971 23.8127C79.3251 24.2114 79.8971 24.766 80.3131 25.4767C80.7291 26.1787 80.9371 26.9674 80.9371 27.8427C80.9371 28.718 80.7291 29.511 80.3131 30.2217C79.8971 30.9237 79.3251 31.474 78.5971 31.8727C77.8777 32.2714 77.0674 32.4707 76.1661 32.4707ZM76.1661 31.6127C76.8854 31.6127 77.5354 31.4524 78.1161 31.1317C78.6967 30.8024 79.1517 30.3517 79.4811 29.7797C79.8104 29.199 79.9751 28.5534 79.9751 27.8427C79.9751 27.132 79.8104 26.4907 79.4811 25.9187C79.1517 25.338 78.6967 24.8874 78.1161 24.5667C77.5354 24.2374 76.8854 24.0727 76.1661 24.0727C75.4467 24.0727 74.7924 24.2374 74.2031 24.5667C73.6224 24.8874 73.1631 25.338 72.8251 25.9187C72.4957 26.4907 72.3311 27.132 72.3311 27.8427C72.3311 28.5534 72.4957 29.199 72.8251 29.7797C73.1631 30.3517 73.6224 30.8024 74.2031 31.1317C74.7924 31.4524 75.4467 31.6127 76.1661 31.6127ZM85.9143 28.1157L84.0553 30.0007V32.3927H83.0933V23.2927H84.0553V28.7917L89.3983 23.2927H90.5033L86.5643 27.4137L90.7763 32.3927H89.6323L85.9143 28.1157ZM98.2469 32.4707C97.5709 32.4707 96.9209 32.3624 96.2969 32.1457C95.6815 31.929 95.2049 31.643 94.8669 31.2877L95.2439 30.5467C95.5732 30.876 96.0109 31.1447 96.5569 31.3527C97.1029 31.552 97.6662 31.6517 98.2469 31.6517C99.0615 31.6517 99.6725 31.5044 100.08 31.2097C100.487 30.9064 100.691 30.5164 100.691 30.0397C100.691 29.6757 100.578 29.3854 100.353 29.1687C100.136 28.952 99.8675 28.7874 99.5469 28.6747C99.2262 28.5534 98.7799 28.4234 98.2079 28.2847C97.5232 28.1114 96.9772 27.9467 96.5699 27.7907C96.1625 27.626 95.8115 27.379 95.5169 27.0497C95.2309 26.7204 95.0879 26.274 95.0879 25.7107C95.0879 25.2514 95.2092 24.8354 95.4519 24.4627C95.6945 24.0814 96.0672 23.778 96.5699 23.5527C97.0725 23.3274 97.6965 23.2147 98.4419 23.2147C98.9619 23.2147 99.4689 23.2884 99.9629 23.4357C100.466 23.5744 100.899 23.7694 101.263 24.0207L100.938 24.7877C100.557 24.5364 100.149 24.35 99.7159 24.2287C99.2825 24.0987 98.8579 24.0337 98.4419 24.0337C97.6445 24.0337 97.0422 24.1897 96.6349 24.5017C96.2362 24.805 96.0369 25.1994 96.0369 25.6847C96.0369 26.0487 96.1452 26.3434 96.3619 26.5687C96.5872 26.7854 96.8645 26.9544 97.1939 27.0757C97.5319 27.1884 97.9825 27.314 98.5459 27.4527C99.2132 27.6174 99.7505 27.782 100.158 27.9467C100.574 28.1027 100.925 28.3454 101.211 28.6747C101.497 28.9954 101.64 29.433 101.64 29.9877C101.64 30.447 101.514 30.8674 101.263 31.2487C101.02 31.6214 100.643 31.9204 100.132 32.1457C99.6205 32.3624 98.9922 32.4707 98.2469 32.4707ZM105.377 24.1247H102.179V23.2927H109.537V24.1247H106.339V32.3927H105.377V24.1247ZM114.925 32.4707C114.024 32.4707 113.205 32.2714 112.468 31.8727C111.74 31.4654 111.168 30.9107 110.752 30.2087C110.345 29.5067 110.141 28.718 110.141 27.8427C110.141 26.9674 110.345 26.1787 110.752 25.4767C111.168 24.7747 111.74 24.2244 112.468 23.8257C113.205 23.4184 114.024 23.2147 114.925 23.2147C115.826 23.2147 116.637 23.414 117.356 23.8127C118.084 24.2114 118.656 24.766 119.072 25.4767C119.488 26.1787 119.696 26.9674 119.696 27.8427C119.696 28.718 119.488 29.511 119.072 30.2217C118.656 30.9237 118.084 31.474 117.356 31.8727C116.637 32.2714 115.826 32.4707 114.925 32.4707ZM114.925 31.6127C115.644 31.6127 116.294 31.4524 116.875 31.1317C117.456 30.8024 117.911 30.3517 118.24 29.7797C118.569 29.199 118.734 28.5534 118.734 27.8427C118.734 27.132 118.569 26.4907 118.24 25.9187C117.911 25.338 117.456 24.8874 116.875 24.5667C116.294 24.2374 115.644 24.0727 114.925 24.0727C114.206 24.0727 113.551 24.2374 112.962 24.5667C112.381 24.8874 111.922 25.338 111.584 25.9187C111.255 26.4907 111.09 27.132 111.09 27.8427C111.09 28.5534 111.255 29.199 111.584 29.7797C111.922 30.3517 112.381 30.8024 112.962 31.1317C113.551 31.4524 114.206 31.6127 114.925 31.6127ZM128.066 32.3927L125.986 29.4677C125.752 29.4937 125.509 29.5067 125.258 29.5067H122.814V32.3927H121.852V23.2927H125.258C126.419 23.2927 127.329 23.57 127.988 24.1247C128.647 24.6794 128.976 25.442 128.976 26.4127C128.976 27.1234 128.794 27.7257 128.43 28.2197C128.075 28.705 127.563 29.056 126.896 29.2727L129.119 32.3927H128.066ZM125.232 28.6877C126.133 28.6877 126.822 28.4884 127.299 28.0897C127.776 27.691 128.014 27.132 128.014 26.4127C128.014 25.676 127.776 25.1127 127.299 24.7227C126.822 24.324 126.133 24.1247 125.232 24.1247H122.814V28.6877H125.232ZM137.682 31.5607V32.3927H131.247V23.2927H137.487V24.1247H132.209V27.3617H136.915V28.1807H132.209V31.5607H137.682Z" fill="white"/>
<line x1="48" y1="20.8927" x2="175" y2="20.8927" stroke="white" stroke-opacity="0.59"/>
<g clip-path="url(#clip0_203_1038)">
<path d="M39.0037 14.9043C38.8339 13.6275 38.81 11.4285 39.9958 10.6901C40.017 10.6766 40.0328 10.657 40.0514 10.6402C41.0209 10.3301 41.6919 9.89492 41.1652 9.30931L26.8633 5L3.70522 8.2197C3.70522 8.2197 1.05333 8.59874 1.29023 12.7188C1.41883 14.9612 2.12213 16.0624 2.73719 16.6044L0.836863 17.1771C0.309419 17.7627 0.980256 18.1981 1.94991 18.5076C1.96834 18.5249 1.98388 18.5444 2.00544 18.5579C3.19056 19.2969 3.16775 21.4957 2.99728 22.7727C-1.26025 23.9817 0.268056 24.3756 0.268056 24.3756L1.20199 24.6016C0.545064 25.1952 -0.107347 26.3209 0.0148627 28.4559C0.251887 32.5752 2.4301 32.8595 2.4301 32.8595L17.5846 37.7852L40.4585 32.2448C40.4585 32.2448 41.9873 31.8502 37.7286 30.6412C37.5574 29.3662 37.5336 27.1676 38.7215 26.4267C38.7433 26.4136 38.7592 26.3936 38.7769 26.3771C39.7465 26.067 40.4169 25.6322 39.89 25.0466L38.8958 24.7464C39.5589 24.3465 40.5549 23.3015 40.7109 20.5871C40.8186 18.72 40.3315 17.6265 39.7677 16.9827L41.7328 16.5072C41.733 16.5079 43.2618 16.1133 39.0037 14.9043ZM19.8711 14.8515L23.7176 14.061L36.7167 11.3896L38.6534 10.9913C38.0346 12.1239 38.0605 13.6739 38.1629 14.6701C38.1854 14.8955 38.2112 15.1013 38.2363 15.2577L36.1165 15.7848L19.7094 19.8664L19.8711 14.8515ZM3.34799 18.8604L5.28442 19.2587L17.7682 21.825L18.8588 22.0484L22.1294 22.7206L22.2907 27.7356L5.42781 23.5402L3.76538 23.1271C3.78982 22.9704 3.81565 22.7648 3.83908 22.5388C3.94086 21.5433 3.96731 19.993 3.34799 18.8604ZM2.59568 12.5205C2.57224 11.4246 2.76753 10.6321 3.16223 10.2292C3.41342 9.972 3.70986 9.91848 3.91316 9.91848C4.02058 9.91848 4.09792 9.9334 4.10318 9.9334L14.0814 13.1864L19.0596 14.8095L18.8963 19.8595L4.93032 15.944L4.1933 15.7376C4.16623 15.7299 4.1295 15.7246 4.10118 15.7234C4.04364 15.7193 2.66286 15.5922 2.59568 12.5205ZM17.6207 35.5974L2.91806 31.4753C2.89086 31.4674 2.85451 31.4622 2.82619 31.4608C2.76765 31.4569 1.38624 31.3299 1.31943 28.259C1.29562 27.1617 1.49191 26.3699 1.88586 25.9667C2.13768 25.7095 2.43424 25.656 2.63717 25.656C2.74484 25.656 2.82192 25.6704 2.82756 25.6704C2.82756 25.6704 2.82819 25.6704 2.82756 25.6704L17.783 30.5473L17.6207 35.5974ZM36.8866 30.4073C36.9098 30.6334 36.9356 30.8388 36.9607 30.9955L18.4334 35.6045L18.5954 30.5895L22.5563 29.7752L23.1413 29.9167L25.3338 29.2041L35.4404 27.1273L37.3778 26.7287C36.7584 27.8612 36.784 29.4118 36.8866 30.4073ZM37.9071 23.5917C37.8734 23.5925 37.8397 23.597 37.808 23.607L36.4106 23.9982L23.1057 27.7289L22.943 22.679L27.3082 21.2552L37.878 17.8081C37.8794 17.8075 38.4341 17.6843 38.8412 18.0983C39.2353 18.5011 39.4308 19.2937 39.4077 20.3896C39.3388 23.4602 37.9574 23.5878 37.9071 23.5917Z" fill="white"/>
</g>
<defs>
<clipPath id="clip0_203_1038">
<rect width="42" height="42" fill="white"/>
</clipPath>
</defs>
</svg>
